<?xml version="1.0" encoding="utf-8"?>
<!-- Generator: Adobe Illustrator 28.2.0, SVG Export Plug-In . SVG Version: 6.00 Build 0)  -->
<svg version="1.1" id="Capa_1" xmlns="http://www.w3.org/2000/svg" xmlns:xlink="http://www.w3.org/1999/xlink" x="0px" y="0px"
	 viewBox="0 0 800 800" style="enable-background:new 0 0 800 800;" xml:space="preserve">
<style type="text/css">
	.st0{fill:#AACBDC;}
</style>
<path class="st0" d="M337.96,24.13c0,0,9.39,172.17,32.87,204.26l9.39-17.22c0,0-43.04-156.52-29.74-187.04H337.96z"/>
<path class="st0" d="M529.7,704.22c0,0,51.65-7.04,64.96-52.43l104.09,3.91c0,0,26.61,28.96,0,48.52H529.7z"/>
<path class="st0" d="M516.39,546.13c0,0,56.35,7.83,52.43,62.61c-3.91,54.78-17.22,61.04-42.26,69.26
	c-25.04,8.22-70.43-53.61-65.74-80.22S474.13,550.83,516.39,546.13z"/>
<path class="st0" d="M341.87,294.91c3.13,0,82.17-10.17,82.17-10.17s32.09-37.57,31.3-56.35c-0.78-18.78-32.09-28.96-47.35-16.43
	C392.74,224.48,341.87,294.91,341.87,294.91z"/>
<path class="st0" d="M206.48,316.04c2.35-1.57,106.43-14.87,106.43-14.87l42.26-50.5c0,0-2.35-36.37-42.26-30.89L206.48,316.04z"/>
<path class="st0" d="M667.04,741l-126.78-8.22c0,0-120.91-73.96-98.61-165.52c0,0-82.96-27-61.43-228.91l60.26-16.43
	c0,0,15.26-16.43-9.39-24.65l-243,41.09c0,0-58.7-22.7-54-330.65h-16.83c0,0-1.57,270,51.65,333.39V363l35.22,3.91v84.13
	c0,0,61.83,181.96,133.83,213.65c72,31.7,183.52,124.43,183.52,124.43h157.3c0,0,19.96,2.35,19.96-25.83
	C698.74,735.13,667.04,741,667.04,741z M280.83,442.83L273,351.26h29.74c-8.61,90,13.3,118.17,13.3,118.17
	C293.35,464.74,280.83,442.83,280.83,442.83z"/>
</svg>
