<?xml version="1.0" encoding="utf-8"?>
<!-- Generator: Adobe Illustrator 28.2.0, SVG Export Plug-In . SVG Version: 6.00 Build 0)  -->
<svg version="1.1" id="Layer_1" xmlns="http://www.w3.org/2000/svg" xmlns:xlink="http://www.w3.org/1999/xlink" x="0px" y="0px"
	 viewBox="0 0 512 512" style="enable-background:new 0 0 512 512;" xml:space="preserve">
<style type="text/css">
	.st0{fill:#AACBDC;}
</style>
<g>
	<g>
		<circle class="st0" cx="56.34" cy="143.84" r="38.85"/>
	</g>
</g>
<g>
	<g>
		<path class="st0" d="M237.74,383.79h-94.9c-5.7,0-10.32,4.62-10.32,10.32v33.49c0,5.7,4.62,10.32,10.32,10.32h94.9
			c5.7,0,10.32-4.62,10.32-10.32v-33.49C248.06,388.41,243.44,383.79,237.74,383.79z"/>
	</g>
</g>
<g>
	<g>
		<path class="st0" d="M369.59,383.79h-94.9c-5.7,0-10.32,4.62-10.32,10.32v33.49c0,5.7,4.62,10.32,10.32,10.32h94.9
			c5.7,0,10.32-4.62,10.32-10.32v-33.49C379.9,388.41,375.28,383.79,369.59,383.79z"/>
	</g>
</g>
<g>
	<g>
		<path class="st0" d="M501.51,383.79h-19.68c2.02-1.86,3.73-4.12,5-6.74c5.34-11.06,0.42-24.39-10.54-29.95l-222.7-113.08
			l8.52-12.45l70.83-45.98l78.24,110.43c7.15,10.09,21.12,12.47,31.21,5.33c10.09-7.15,12.47-21.12,5.33-31.21l-90.67-127.97
			c-6.94-9.8-20.38-12.38-30.46-5.84l-69.11,44.86l-94.26-37.44l62.3-31.13c3.55-1.77,6.36-4.75,7.92-8.4l28.73-66.91
			c3.57-8.31,0.26-18.19-7.87-22.15c-8.68-4.23-19.03-0.31-22.8,8.46l-26.49,61.71l-71.37,35.55c-5.92,2.95-10.54,7.99-12.97,14.15
			l-31.64,80.4c-1.9,4.83-2.53,10.07-1.81,15.22l10.37,74.89l-26.62,73.91c-1.78,4.94-1.1,10.16,1.41,14.33h-61.7
			c-5.7,0-10.32,4.62-10.32,10.32v33.49c0,5.7,4.62,10.32,10.32,10.32h94.9c5.7,0,10.32-4.62,10.32-10.32v-33.49
			c0-5.7-4.62-10.32-10.32-10.32h-4.43c0.55-0.92,1.04-1.9,1.41-2.95l28.02-77.82c0.92-2.57,1.21-5.32,0.83-8.02l-9.76-69.79
			l101.24,43.44l226.74,115.13h-43.04c-5.7,0-10.32,4.62-10.32,10.32v33.49c0,5.7,4.62,10.32,10.32,10.32h94.9
			c5.7,0,10.32-4.62,10.32-10.32v-33.49C511.82,388.41,507.2,383.79,501.51,383.79z"/>
	</g>
</g>
<g>
	<g>
		<path class="st0" d="M171.89,454.42h-94.9c-5.7,0-10.32,4.62-10.32,10.32v33.49c0,5.7,4.62,10.32,10.32,10.32h94.9
			c5.7,0,10.32-4.62,10.32-10.32v-33.49C182.21,459.04,177.59,454.42,171.89,454.42z"/>
	</g>
</g>
<g>
	<g>
		<path class="st0" d="M303.74,454.42h-94.9c-5.7,0-10.32,4.62-10.32,10.32v33.49c0,5.7,4.62,10.32,10.32,10.32h94.9
			c5.7,0,10.32-4.62,10.32-10.32v-33.49C314.06,459.04,309.44,454.42,303.74,454.42z"/>
	</g>
</g>
<g>
	<g>
		<path class="st0" d="M40.41,454.42H0.37v54.12h40.03c5.65,0,10.22-4.58,10.22-10.23v-33.67C50.63,459,46.06,454.42,40.41,454.42z"
			/>
	</g>
</g>
<g>
	<g>
		<path class="st0" d="M435.59,454.42h-94.9c-5.7,0-10.32,4.62-10.32,10.32v33.49c0,5.7,4.62,10.32,10.32,10.32h94.9
			c5.7,0,10.32-4.62,10.32-10.32v-33.49C445.9,459.04,441.28,454.42,435.59,454.42z"/>
	</g>
</g>
<g>
	<g>
		<path class="st0" d="M472.44,454.42c-5.65,0-10.22,4.58-10.22,10.22v33.67c0,5.65,4.58,10.23,10.22,10.23h39.38v-54.12H472.44z"/>
	</g>
</g>
</svg>
