<?xml version="1.0" encoding="utf-8"?>
<!-- Generator: Adobe Illustrator 28.2.0, SVG Export Plug-In . SVG Version: 6.00 Build 0)  -->
<svg version="1.1" id="Capa_1" xmlns="http://www.w3.org/2000/svg" xmlns:xlink="http://www.w3.org/1999/xlink" x="0px" y="0px"
	 viewBox="0 0 800 800" style="enable-background:new 0 0 800 800;" xml:space="preserve">
<style type="text/css">
	.st0{fill:#AACBDC;}
</style>
<path class="st0" d="M282,12.39c0,0-9.78,39.52-6.65,45.78c3.13,6.26-3.91,18.78,47.35,32.09s62.22,21.13,64.96,30.91l-22.3,19.96
	c0,0-7.04,0.78-9.78-1.96c-2.74-2.74-110.35-73.96-113.87-100.57C238.17,12,282,12.39,282,12.39z"/>
<path class="st0" d="M226.83,35.87c0,0,6.65,28.96,38.35,47.35s34.83,31.7,34.83,31.7l-91.17-20.35c0,0-7.43,1.57-4.3-11.35
	S214.7,44.87,226.83,35.87z"/>
<path class="st0" d="M203.75,107.48c0,0-3.54,16.43,17.99,25.83c21.52,9.39,83.35,45,105.65,45s46.17,2.35,54,8.22
	c0,0-7.83-32.48-71.22-54S203.75,107.48,203.75,107.48z"/>
<path class="st0" d="M402.13,186.52c0,0,5.09,7.04,23.87-21.13s79.43-36.78,97.83-57.91c18.39-21.13,65.35-66.52,9-93.52
	c0,0,17.22,50.87-9,73.96C497.61,111,381.25,132.82,376.7,151.7L402.13,186.52z"/>
<path class="st0" d="M338.74,187.3c0,0,30.52,30.91,42.65,35.61c0,0,10.17,1.17,14.09-1.96
	C395.48,220.96,387.26,179.87,338.74,187.3z"/>
<path class="st0" d="M261.65,166.57c0,0,9,73.57,15.65,84.52c6.65,10.96,40.3-9.39,41.87-16.43c0,0,19.17-26.61,21.13-26.61
	S301.57,176.74,261.65,166.57z"/>
<path class="st0" d="M492.13,186.52c0,0-38.35,36-58.7,38.74c-20.35,2.74-25.83-2.13-25.83-2.13s-3.13-20.17,13.3-26.82
	S486.65,181.83,492.13,186.52z"/>
<path class="st0" d="M548.48,180.65c0,0-23.09,76.3-32.87,80.22c-9.78,3.91-34.43-50.46-34.43-50.46L548.48,180.65z"/>
<path class="st0" d="M376.7,237.78l4.7,67.7h54.78c0,0,3.13-4.3,3.91-11.35c0.78-7.04,7.83-54.78,7.83-54.78L376.7,237.78z"/>
<path class="st0" d="M416.61,319.17l-1.96,118.96h-2.35c0,0-39.91-93.91-41.09-110.74C370.04,310.57,416.61,319.17,416.61,319.17z"
	/>
<path class="st0" d="M428.35,319.96l2.35,127.17c0,0,16.83-14.09,17.22-18.78c0.39-4.7-4.7-97.04-9.78-105.65
	S428.35,319.96,428.35,319.96z"/>
<path class="st0" d="M363.78,365.35c0,0,17.22,30.13,25.83,64.17c8.61,34.04,22.7,39.91,22.7,39.91l-8.61,69.26
	c0,0-3.93,2.35-9.79-2.35c-5.86-4.7-33.64-45.78-33.64-45.78S349.3,378.54,363.78,365.35z"/>
<path class="st0" d="M428.35,475.7c0-1.57,21.4-16.43,21.4-16.43l8.73,64.17c0,0-27.78,21.52-41.87,22.3L428.35,475.7z"/>
<path class="st0" d="M458.48,550.43c0,0,5.09,39.91,4.3,63.39l1.96,14.09l-73.57,23.48l16.43-68.48c0,0-2.74-5.87,9-11.74
	S458.48,550.43,458.48,550.43z"/>
<path class="st0" d="M356.29,523.83l34.89,41.87c0,0,8.61,0.39,0,25.43s-12.13,53.22-12.13,53.22l-34.83-43.43
	c0,0,0.78-8.61,1.96-18.39S356.29,523.83,356.29,523.83z"/>
<path class="st0" d="M391.17,673.7c0,0,4.91,35.61,3.83,48.13c-1.09,12.52,5,21.91,5,21.91l43.61-13.7c0,0,14.87-40.7,16.83-61.83
	s-1.96-16.83-1.96-16.83L391.17,673.7z"/>
<path class="st0" d="M339.13,631.04l30.48,37.17c0,0,0.83,5.48-3.48,12.91c-4.3,7.43-15.65,54.78-15.65,54.78
	s-20.35-10.96-19.96-27.78C330.91,691.3,333.65,638.87,339.13,631.04z"/>
<polygon class="st0" points="330.52,739.43 344.22,753.91 335.61,773.87 "/>
<polygon class="st0" points="402.52,762.13 429.91,756.65 406.83,791.48 "/>
<path class="st0" d="M432.13,185.09c0,0,13.16-23.75,36.06-31.57c22.9-7.83,94.9-58.43,97.51-70.43c2.61-12,15.65,61.04,5.74,67.3
	c-9.91,6.26-38.09,22.43-43.83,27.65s-24,5.74-35.48,2.61S436.1,176.32,432.13,185.09z"/>
<path class="st0" d="M575.1,31.43c0,0,33.38,102.61,10.83,110.59c0,0-17.63-66.76-13.45-76.68
	C576.65,55.43,575.64,39.26,575.1,31.43z"/>
</svg>
