<?xml version="1.0" encoding="utf-8"?>
<!-- Generator: Adobe Illustrator 28.2.0, SVG Export Plug-In . SVG Version: 6.00 Build 0)  -->
<svg version="1.1" id="Calque_1" xmlns="http://www.w3.org/2000/svg" xmlns:xlink="http://www.w3.org/1999/xlink" x="0px" y="0px"
	 viewBox="0 0 1080 1080" style="enable-background:new 0 0 1080 1080;" xml:space="preserve">
<style type="text/css">
	.st0{fill:#AACBDC;}
</style>
<path class="st0" d="M129.27,432.68c0,0,109.52-3.07,122.83-7.16c13.31-4.09,102.36-8.19,122.83-6.14s55.27,1.98,82.91-0.54
	s57.55-10.71,75.86-10.71s51.06-22.52,74.61-23.54s73.7,24.57,85.98,28.66c12.28,4.09,49.13-4.12,73.7-4.62s38.9,7.69,46.06,8.72
	c7.16,1.02,41.97-6.14,58.34,2.05c16.38,8.19,21.49,20.47,27.64,20.47c6.14,0,27.64,13.31,27.64,18.42c0,5.12,0-9.21,0-9.21
	s-30.71-9.21-18.42-33.78l39.92,15.35c0,0,20.47-47.08,68.58-22.52c0,0,7.16-3.07,11.26,0c4.09,3.07,3.5,9.13,3.5,9.13
	s22.09,6.23,25.16,24.65c3.07,18.42,0,37.19,0,37.19l-30.37,31.73l-1.36,24.91c0,0-4.44,7.16-12.97,0l-4.44,5.8l-8.53-4.78
	l3.07,6.82c0,0-14.67,9.89-18.08,10.24c-3.41,0.34-22.52-20.13-22.52-20.13s-13.31,0.34-16.38,5.12
	c-3.07,4.78-22.18-3.07-26.27-2.73s-16.72-7.85-30.02,2.73s-17.4,11.94-25.25,13.31s-23.88,13.31-30.02,22.86
	c0,0-11.26-2.73-20.47,12.62c-9.21,15.35-33.1,24.22-41.62,22.86c-8.53-1.36-24.22,28.66-24.22,28.66l-83.59,62.78
	c0,0,5.46,6.48-11.26,9.55l-3.07,7.51c0,0-22.86,9.21-1.36,17.74l396.72,1.02l-0.26,40.17H647.45l-3.07,4.61
	c0,0-33.78,5.89-46.32-8.44H95.24V737.7l496.68-4.09c0,0-16.38-47.08,8.19-71.65c24.57-24.57,113.49-86.97,113.49-86.97l11.89-19.48
	l15.24-12.44c0,0-48.51-24.41-85.36-16.22c-36.85,8.19-62.95,28.15-62.95,28.15s-113.1-15.87-141.76-9.72
	c-28.66,6.14-85.98,2.05-106.45-6.14c-20.47-8.19-81.89-4.09-100.31-8.19c-18.42-4.09-34.8-22.52-104.4-18.42l-12.28-24.57
	L22.82,520.7c0,0-30.71-20.47,0-45.04c30.71-24.57,73.7-38.9,85.98-49.13C121.08,416.3,129.27,432.68,129.27,432.68z"/>
</svg>
